<svg width="135" height="31" viewBox="0 0 135 31" fill="none" xmlns="http://www.w3.org/2000/svg">
<path d="M12.075 8.035C11.2817 8.035 10.675 7.94167 10.255 7.755C9.835 7.545 9.53167 7.31167 9.345 7.055C9.18167 6.79833 9.08833 6.565 9.065 6.355C9.04167 6.12167 9.03 5.98167 9.03 5.935C9.03 5.81833 8.98333 5.63167 8.89 5.375C8.82 5.095 8.58667 4.955 8.19 4.955C7.53667 4.955 6.95333 5.15333 6.44 5.55C5.95 5.94667 5.68167 6.53 5.635 7.3C5.58833 8.07 5.78667 8.735 6.23 9.295C6.67333 9.855 7.54833 10.1467 8.855 10.17C9.50833 10.17 10.1967 10.2633 10.92 10.45C11.6433 10.6367 12.32 10.94 12.95 11.36C13.6033 11.7567 14.1167 12.305 14.49 13.005C14.8867 13.6817 15.085 14.5333 15.085 15.56C15.0617 17.6133 14.5133 19.2 13.44 20.32C12.3667 21.44 10.5817 22 8.085 22C6.42833 22 5.09833 21.8017 4.095 21.405C3.09167 20.985 2.35667 20.495 1.89 19.935C1.44667 19.375 1.21333 18.8733 1.19 18.43C1.16667 17.9867 1.19 17.555 1.26 17.135C1.35333 16.715 1.59833 16.3533 1.995 16.05C2.415 15.7467 3.08 15.56 3.99 15.49C4.92333 15.42 5.58833 15.5017 5.985 15.735C6.38167 15.945 6.62667 16.19 6.72 16.47C6.83667 16.75 6.895 16.925 6.895 16.995C6.895 17.065 6.91833 17.24 6.965 17.52C7.035 17.7767 7.15167 18.0333 7.315 18.29C7.50167 18.5233 7.75833 18.64 8.085 18.64C8.575 18.64 8.995 18.4417 9.345 18.045C9.695 17.6483 9.91667 17.0067 10.01 16.12C10.1733 14.37 9.29833 13.495 7.385 13.495C6.91833 13.495 6.31167 13.425 5.565 13.285C4.84167 13.1217 4.11833 12.8417 3.395 12.445C2.67167 12.025 2.065 11.4417 1.575 10.695C1.085 9.94833 0.851667 8.96833 0.875 7.755C0.898333 6.54167 1.12 5.55 1.54 4.78C1.96 3.98667 2.50833 3.38 3.185 2.96C3.885 2.51667 4.64333 2.20167 5.46 2.015C6.3 1.82833 7.12833 1.72333 7.945 1.7C9.04167 1.67667 10.0917 1.805 11.095 2.085C12.1217 2.365 12.9733 2.79667 13.65 3.38C14.35 3.94 14.7467 4.675 14.84 5.585C14.91 6.26167 14.805 6.775 14.525 7.125C14.2683 7.45167 13.9417 7.685 13.545 7.825C13.1717 7.94167 12.8333 8.01167 12.53 8.035C12.2267 8.035 12.075 8.035 12.075 8.035ZM19.8477 7.265C19.8477 7.265 19.6961 7.265 19.3927 7.265C19.0894 7.24167 18.7277 7.17167 18.3077 7.055C17.9111 6.915 17.5494 6.67 17.2227 6.32C16.8961 5.97 16.7211 5.445 16.6977 4.745C16.6744 4.045 16.7794 3.53167 17.0127 3.205C17.2461 2.855 17.5377 2.62167 17.8877 2.505C18.2377 2.365 18.5761 2.295 18.9027 2.295C19.2294 2.27167 19.4627 2.24833 19.6027 2.225C19.7427 2.20167 19.9761 2.225 20.3027 2.295C20.6294 2.34167 20.9677 2.47 21.3177 2.68C21.6677 2.86667 21.9594 3.15833 22.1927 3.555C22.4261 3.92833 22.5194 4.43 22.4727 5.06C22.4261 5.66667 22.2627 6.13333 21.9827 6.46C21.7261 6.76333 21.4227 6.97333 21.0727 7.09C20.7461 7.18333 20.4544 7.24167 20.1977 7.265C19.9644 7.265 19.8477 7.265 19.8477 7.265ZM18.6227 19.83L17.7827 11.85C17.7827 11.85 17.7244 11.7333 17.6077 11.5C17.5144 11.2433 17.4444 11.0683 17.3977 10.975C17.3744 10.905 17.3277 10.765 17.2577 10.555C17.2111 10.3217 17.2694 10.0767 17.4327 9.82C17.6194 9.56333 18.0161 9.37667 18.6227 9.26C19.2527 9.14333 19.9061 9.10833 20.5827 9.155C21.2594 9.20167 21.8544 9.41167 22.3677 9.785C22.9044 10.135 23.2311 10.7533 23.3477 11.64C23.4411 12.2933 23.5344 13.075 23.6277 13.985C23.7211 14.8717 23.8027 15.7467 23.8727 16.61C23.9661 17.45 24.0361 18.1617 24.0827 18.745C24.1527 19.305 24.1877 19.585 24.1877 19.585C24.1877 19.585 24.1994 19.7133 24.2227 19.97C24.2461 20.2033 24.2111 20.4833 24.1177 20.81C24.0244 21.1133 23.7911 21.3933 23.4177 21.65C23.0677 21.8833 22.4961 22 21.7027 22C20.9094 22 20.3027 21.895 19.8827 21.685C19.4627 21.4517 19.1594 21.195 18.9727 20.915C18.8094 20.635 18.7044 20.39 18.6577 20.18C18.6344 19.9467 18.6227 19.83 18.6227 19.83ZM26.133 2.89C26.1096 2.30667 26.2846 1.84 26.658 1.49C27.0313 1.11667 27.8596 0.894998 29.143 0.824999C30.0063 0.778332 30.6363 0.883332 31.033 1.14C31.4296 1.39667 31.6746 1.665 31.768 1.945C31.8846 2.20167 31.943 2.33 31.943 2.33L32.153 5.445C32.153 5.445 32.3396 5.445 32.713 5.445C33.1096 5.445 33.553 5.49167 34.043 5.585C34.5563 5.655 34.9996 5.80667 35.373 6.04C35.7696 6.27333 35.968 6.635 35.968 7.125C35.968 7.615 35.7813 7.97667 35.408 8.21C35.0346 8.44333 34.603 8.60667 34.113 8.7C33.623 8.77 33.1796 8.805 32.783 8.805C32.4096 8.805 32.223 8.805 32.223 8.805C32.223 8.805 32.223 9.07333 32.223 9.61C32.2463 10.1233 32.258 10.8 32.258 11.64C32.258 12.4567 32.2696 13.3317 32.293 14.265C32.3163 15.1983 32.328 16.0967 32.328 16.96C32.328 17.8 32.328 18.5117 32.328 19.095C32.3513 19.655 32.363 19.9817 32.363 20.075C32.363 20.2383 32.3046 20.4717 32.188 20.775C32.0946 21.0783 31.8263 21.3583 31.383 21.615C30.963 21.8717 30.263 22 29.283 22C28.5596 22 27.9996 21.9183 27.603 21.755C27.2063 21.5683 26.9146 21.37 26.728 21.16C26.5646 20.9267 26.4713 20.7283 26.448 20.565C26.4246 20.3783 26.413 20.285 26.413 20.285L26.133 2.89ZM39.544 19.655C39.544 19.6317 39.4507 19.4917 39.264 19.235C39.1007 18.955 38.9023 18.5 38.669 17.87C38.4357 17.2167 38.214 16.3183 38.004 15.175C37.794 14.0083 37.6307 12.5383 37.514 10.765C37.4673 9.83167 37.5957 9.16667 37.899 8.77C38.2257 8.37333 38.634 8.12833 39.124 8.035C39.614 7.91833 40.0807 7.86 40.524 7.86C40.524 7.86 40.6523 7.86 40.909 7.86C41.189 7.83667 41.504 7.86 41.854 7.93C42.204 7.97667 42.5073 8.12833 42.764 8.385C43.044 8.61833 43.1957 8.99167 43.219 9.505C43.2423 9.925 43.2657 10.4967 43.289 11.22C43.3123 11.9433 43.3473 12.725 43.394 13.565C43.464 14.3817 43.569 15.175 43.709 15.945C43.849 16.715 44.024 17.3567 44.234 17.87C44.4673 18.36 44.759 18.6283 45.109 18.675C45.459 18.7217 45.6923 18.5233 45.809 18.08C45.9257 17.6133 45.9607 17.03 45.914 16.33C45.8907 15.63 45.8207 14.93 45.704 14.23C45.6107 13.5067 45.5173 12.9 45.424 12.41C45.3307 11.92 45.284 11.675 45.284 11.675C45.284 11.675 45.2373 11.535 45.144 11.255C45.0507 10.9517 45.0157 10.6133 45.039 10.24C45.0623 9.86667 45.2257 9.52833 45.529 9.225C45.8323 8.92167 46.369 8.75833 47.139 8.735C48.189 8.68833 48.9707 8.79333 49.484 9.05C50.0207 9.30667 50.3823 9.63333 50.569 10.03C50.779 10.4267 50.9073 10.835 50.954 11.255C51.0007 11.4883 51.0823 12.0483 51.199 12.935C51.339 13.7983 51.4907 14.825 51.654 16.015C51.8173 17.1817 51.9457 18.395 52.039 19.655C52.1323 20.8917 52.1673 22.0233 52.144 23.05C52.1207 24.0767 51.9807 24.8583 51.724 25.395C51.3273 26.2583 50.779 27.0517 50.079 27.775C49.4023 28.5217 48.4923 29.0933 47.349 29.49C46.229 29.91 44.794 30.0733 43.044 29.98C41.7373 29.91 40.6873 29.7 39.894 29.35C39.1007 29.0233 38.5057 28.6617 38.109 28.265C37.7123 27.8917 37.444 27.5533 37.304 27.25C37.1873 26.97 37.129 26.83 37.129 26.83C37.129 26.83 37.0823 26.7017 36.989 26.445C36.919 26.1883 36.9073 25.885 36.954 25.535C37.024 25.2083 37.2457 24.9167 37.619 24.66C37.9923 24.4267 38.6457 24.3217 39.579 24.345C40.5123 24.3683 41.189 24.45 41.609 24.59C42.029 24.7533 42.2973 24.9283 42.414 25.115C42.5307 25.3017 42.5657 25.465 42.519 25.605C42.4957 25.745 42.484 25.815 42.484 25.815C42.484 25.815 42.484 25.9433 42.484 26.2C42.484 26.4567 42.5657 26.7017 42.729 26.935C42.9157 27.1683 43.2423 27.2733 43.709 27.25C44.199 27.2033 44.724 26.9817 45.284 26.585C45.844 26.2117 46.264 25.64 46.544 24.87C46.8473 24.1 46.824 23.1433 46.474 22C46.474 22 46.2523 22.035 45.809 22.105C45.3657 22.175 44.7823 22.175 44.059 22.105C43.359 22.0583 42.6007 21.86 41.784 21.51C40.9907 21.1367 40.244 20.5183 39.544 19.655ZM53.716 11.43C53.716 11.43 53.7626 11.3133 53.856 11.08C53.9493 10.8467 54.1943 10.6133 54.591 10.38C54.9876 10.1467 55.6293 10.0183 56.516 9.995C57.1926 9.97167 57.9393 9.96 58.756 9.96C59.5726 9.93667 60.3543 9.91333 61.101 9.89C61.8476 9.86667 62.466 9.855 62.956 9.855C63.446 9.83167 63.691 9.82 63.691 9.82C63.691 9.82 63.831 9.83167 64.111 9.855C64.391 9.855 64.7176 9.90167 65.091 9.995C65.4643 10.065 65.8026 10.1933 66.106 10.38C66.4093 10.5433 66.5726 10.8 66.596 11.15C66.6426 11.5 66.5026 11.7917 66.176 12.025C65.8493 12.235 65.4643 12.41 65.021 12.55C64.5776 12.6667 64.1693 12.7483 63.796 12.795C63.446 12.8417 63.2476 12.865 63.201 12.865C63.1776 12.865 62.9326 12.8767 62.466 12.9C61.9993 12.9 61.4276 12.9117 60.751 12.935C60.0976 12.935 59.4443 12.9467 58.791 12.97C58.1376 12.97 57.5893 12.9817 57.146 13.005C56.7026 13.005 56.481 13.005 56.481 13.005C56.481 13.005 56.341 12.9933 56.061 12.97C55.781 12.9467 55.4543 12.8883 55.081 12.795C54.731 12.6783 54.416 12.515 54.136 12.305C53.856 12.095 53.716 11.8033 53.716 11.43ZM79.2381 8.035C78.4448 8.035 77.8381 7.94167 77.4181 7.755C76.9981 7.545 76.6948 7.31167 76.5081 7.055C76.3448 6.79833 76.2514 6.565 76.2281 6.355C76.2048 6.12167 76.1931 5.98167 76.1931 5.935C76.1931 5.81833 76.1464 5.63167 76.0531 5.375C75.9831 5.095 75.7498 4.955 75.3531 4.955C74.6998 4.955 74.1164 5.15333 73.6031 5.55C73.1131 5.94667 72.8448 6.53 72.7981 7.3C72.7514 8.07 72.9498 8.735 73.3931 9.295C73.8364 9.855 74.7114 10.1467 76.0181 10.17C76.6714 10.17 77.3598 10.2633 78.0831 10.45C78.8064 10.6367 79.4831 10.94 80.1131 11.36C80.7664 11.7567 81.2798 12.305 81.6531 13.005C82.0498 13.6817 82.2481 14.5333 82.2481 15.56C82.2248 17.6133 81.6764 19.2 80.6031 20.32C79.5298 21.44 77.7448 22 75.2481 22C73.5914 22 72.2614 21.8017 71.2581 21.405C70.2548 20.985 69.5198 20.495 69.0531 19.935C68.6098 19.375 68.3764 18.8733 68.3531 18.43C68.3298 17.9867 68.3531 17.555 68.4231 17.135C68.5164 16.715 68.7614 16.3533 69.1581 16.05C69.5781 15.7467 70.2431 15.56 71.1531 15.49C72.0864 15.42 72.7514 15.5017 73.1481 15.735C73.5448 15.945 73.7898 16.19 73.8831 16.47C73.9998 16.75 74.0581 16.925 74.0581 16.995C74.0581 17.065 74.0814 17.24 74.1281 17.52C74.1981 17.7767 74.3148 18.0333 74.4781 18.29C74.6648 18.5233 74.9214 18.64 75.2481 18.64C75.7381 18.64 76.1581 18.4417 76.5081 18.045C76.8581 17.6483 77.0798 17.0067 77.1731 16.12C77.3364 14.37 76.4614 13.495 74.5481 13.495C74.0814 13.495 73.4748 13.425 72.7281 13.285C72.0048 13.1217 71.2814 12.8417 70.5581 12.445C69.8348 12.025 69.2281 11.4417 68.7381 10.695C68.2481 9.94833 68.0148 8.96833 68.0381 7.755C68.0614 6.54167 68.2831 5.55 68.7031 4.78C69.1231 3.98667 69.6714 3.38 70.3481 2.96C71.0481 2.51667 71.8064 2.20167 72.6231 2.015C73.4631 1.82833 74.2914 1.72333 75.1081 1.7C76.2048 1.67667 77.2548 1.805 78.2581 2.085C79.2848 2.365 80.1364 2.79667 80.8131 3.38C81.5131 3.94 81.9098 4.675 82.0031 5.585C82.0731 6.26167 81.9681 6.775 81.6881 7.125C81.4314 7.45167 81.1048 7.685 80.7081 7.825C80.3348 7.94167 79.9964 8.01167 79.6931 8.035C79.3898 8.035 79.2381 8.035 79.2381 8.035ZM83.9308 2.89C83.9075 2.30667 84.0825 1.84 84.4558 1.49C84.8292 1.11667 85.6575 0.894998 86.9408 0.824999C87.8042 0.778332 88.4342 0.883332 88.8308 1.14C89.2275 1.39667 89.4725 1.665 89.5658 1.945C89.6825 2.20167 89.7408 2.33 89.7408 2.33L89.9508 5.445C89.9508 5.445 90.1375 5.445 90.5108 5.445C90.9075 5.445 91.3508 5.49167 91.8408 5.585C92.3542 5.655 92.7975 5.80667 93.1708 6.04C93.5675 6.27333 93.7658 6.635 93.7658 7.125C93.7658 7.615 93.5792 7.97667 93.2058 8.21C92.8325 8.44333 92.4008 8.60667 91.9108 8.7C91.4208 8.77 90.9775 8.805 90.5808 8.805C90.2075 8.805 90.0208 8.805 90.0208 8.805C90.0208 8.805 90.0208 9.07333 90.0208 9.61C90.0442 10.1233 90.0558 10.8 90.0558 11.64C90.0558 12.4567 90.0675 13.3317 90.0908 14.265C90.1142 15.1983 90.1258 16.0967 90.1258 16.96C90.1258 17.8 90.1258 18.5117 90.1258 19.095C90.1492 19.655 90.1608 19.9817 90.1608 20.075C90.1608 20.2383 90.1025 20.4717 89.9858 20.775C89.8925 21.0783 89.6242 21.3583 89.1808 21.615C88.7608 21.8717 88.0608 22 87.0808 22C86.3575 22 85.7975 21.9183 85.4008 21.755C85.0042 21.5683 84.7125 21.37 84.5258 21.16C84.3625 20.9267 84.2692 20.7283 84.2458 20.565C84.2225 20.3783 84.2108 20.285 84.2108 20.285L83.9308 2.89ZM97.3418 19.655C97.3418 19.6317 97.2485 19.4917 97.0618 19.235C96.8985 18.955 96.7002 18.5 96.4668 17.87C96.2335 17.2167 96.0118 16.3183 95.8018 15.175C95.5918 14.0083 95.4285 12.5383 95.3118 10.765C95.2652 9.83167 95.3935 9.16667 95.6968 8.77C96.0235 8.37333 96.4318 8.12833 96.9218 8.035C97.4118 7.91833 97.8785 7.86 98.3218 7.86C98.3218 7.86 98.4502 7.86 98.7068 7.86C98.9868 7.83667 99.3018 7.86 99.6518 7.93C100.002 7.97667 100.305 8.12833 100.562 8.385C100.842 8.61833 100.994 8.99167 101.017 9.505C101.04 9.925 101.064 10.4967 101.087 11.22C101.11 11.9433 101.145 12.725 101.192 13.565C101.262 14.3817 101.367 15.175 101.507 15.945C101.647 16.715 101.822 17.3567 102.032 17.87C102.265 18.36 102.557 18.6283 102.907 18.675C103.257 18.7217 103.49 18.5233 103.607 18.08C103.724 17.6133 103.759 17.03 103.712 16.33C103.689 15.63 103.619 14.93 103.502 14.23C103.409 13.5067 103.315 12.9 103.222 12.41C103.129 11.92 103.082 11.675 103.082 11.675C103.082 11.675 103.035 11.535 102.942 11.255C102.849 10.9517 102.814 10.6133 102.837 10.24C102.86 9.86667 103.024 9.52833 103.327 9.225C103.63 8.92167 104.167 8.75833 104.937 8.735C105.987 8.68833 106.769 8.79333 107.282 9.05C107.819 9.30667 108.18 9.63333 108.367 10.03C108.577 10.4267 108.705 10.835 108.752 11.255C108.799 11.4883 108.88 12.0483 108.997 12.935C109.137 13.7983 109.289 14.825 109.452 16.015C109.615 17.1817 109.744 18.395 109.837 19.655C109.93 20.8917 109.965 22.0233 109.942 23.05C109.919 24.0767 109.779 24.8583 109.522 25.395C109.125 26.2583 108.577 27.0517 107.877 27.775C107.2 28.5217 106.29 29.0933 105.147 29.49C104.027 29.91 102.592 30.0733 100.842 29.98C99.5352 29.91 98.4852 29.7 97.6918 29.35C96.8985 29.0233 96.3035 28.6617 95.9068 28.265C95.5102 27.8917 95.2418 27.5533 95.1018 27.25C94.9852 26.97 94.9268 26.83 94.9268 26.83C94.9268 26.83 94.8802 26.7017 94.7868 26.445C94.7168 26.1883 94.7052 25.885 94.7518 25.535C94.8218 25.2083 95.0435 24.9167 95.4168 24.66C95.7902 24.4267 96.4435 24.3217 97.3768 24.345C98.3102 24.3683 98.9868 24.45 99.4068 24.59C99.8268 24.7533 100.095 24.9283 100.212 25.115C100.329 25.3017 100.364 25.465 100.317 25.605C100.294 25.745 100.282 25.815 100.282 25.815C100.282 25.815 100.282 25.9433 100.282 26.2C100.282 26.4567 100.364 26.7017 100.527 26.935C100.714 27.1683 101.04 27.2733 101.507 27.25C101.997 27.2033 102.522 26.9817 103.082 26.585C103.642 26.2117 104.062 25.64 104.342 24.87C104.645 24.1 104.622 23.1433 104.272 22C104.272 22 104.05 22.035 103.607 22.105C103.164 22.175 102.58 22.175 101.857 22.105C101.157 22.0583 100.399 21.86 99.5818 21.51C98.7885 21.1367 98.0418 20.5183 97.3418 19.655ZM114.524 0.929998C114.524 0.929998 114.675 0.941665 114.979 0.965C115.282 0.965 115.632 1.02333 116.029 1.14C116.425 1.23333 116.775 1.40833 117.079 1.665C117.382 1.92167 117.534 2.28333 117.534 2.75C117.534 3.05333 117.545 3.67167 117.569 4.605C117.592 5.53833 117.615 6.64667 117.639 7.93C117.662 9.19 117.685 10.4967 117.709 11.85C117.755 13.18 117.79 14.4283 117.814 15.595C117.837 16.7617 117.849 17.7067 117.849 18.43C117.872 19.1533 117.884 19.515 117.884 19.515C117.884 19.515 117.884 19.6433 117.884 19.9C117.884 20.1333 117.814 20.425 117.674 20.775C117.534 21.1017 117.265 21.3933 116.869 21.65C116.472 21.8833 115.889 22 115.119 22C114.092 22 113.345 21.8717 112.879 21.615C112.412 21.335 112.12 21.0317 112.004 20.705C111.91 20.355 111.875 20.0867 111.899 19.9C111.922 19.8067 111.934 19.3983 111.934 18.675C111.934 17.9517 111.922 17.0417 111.899 15.945C111.899 14.8483 111.887 13.67 111.864 12.41C111.84 11.15 111.817 9.91333 111.794 8.7C111.77 7.46333 111.735 6.36667 111.689 5.41C111.665 4.43 111.642 3.70667 111.619 3.24C111.572 2.58667 111.724 2.09667 112.074 1.77C112.447 1.44333 112.867 1.23333 113.334 1.14C113.824 1.02333 114.22 0.953332 114.524 0.929998ZM133.718 11.43C133.648 12.5967 133.321 13.5417 132.738 14.265C132.154 14.965 131.443 15.5017 130.603 15.875C129.786 16.225 128.969 16.47 128.153 16.61C127.336 16.7267 126.648 16.785 126.088 16.785C125.551 16.785 125.283 16.785 125.283 16.785C125.423 17.6017 125.621 18.185 125.878 18.535C126.134 18.885 126.414 19.0833 126.718 19.13C127.044 19.1767 127.348 19.1533 127.628 19.06C127.908 18.9433 128.129 18.815 128.293 18.675C128.479 18.535 128.573 18.465 128.573 18.465C128.573 18.465 128.701 18.36 128.958 18.15C129.214 17.94 129.611 17.7417 130.148 17.555C130.708 17.345 131.408 17.24 132.248 17.24C133.204 17.24 133.846 17.3683 134.173 17.625C134.523 17.8583 134.686 18.1383 134.663 18.465C134.663 18.7683 134.593 19.0483 134.453 19.305C134.336 19.5383 134.278 19.655 134.278 19.655C134.278 19.655 134.173 19.7717 133.963 20.005C133.776 20.215 133.426 20.4717 132.913 20.775C132.399 21.0783 131.688 21.3583 130.778 21.615C129.868 21.8483 128.701 21.9767 127.278 22C125.901 22.0233 124.746 21.8367 123.813 21.44C122.879 21.0433 122.109 20.53 121.503 19.9C120.896 19.2467 120.429 18.57 120.103 17.87C119.799 17.1467 119.578 16.4817 119.438 15.875C119.321 15.245 119.263 14.755 119.263 14.405C119.263 14.055 119.286 13.6 119.333 13.04C119.403 12.48 119.554 11.8967 119.788 11.29C120.044 10.66 120.429 10.065 120.943 9.505C121.456 8.945 122.156 8.49 123.043 8.14C123.953 7.79 125.108 7.60333 126.508 7.58C128.258 7.55667 129.623 7.70833 130.603 8.035C131.583 8.36167 132.294 8.75833 132.738 9.225C133.181 9.69167 133.449 10.135 133.543 10.555C133.659 10.975 133.718 11.2667 133.718 11.43ZM124.793 14.37C126.216 14.2533 127.278 13.95 127.978 13.46C128.678 12.97 129.086 12.4217 129.203 11.815C129.319 11.2083 129.203 10.695 128.853 10.275C128.526 9.83167 128.024 9.63333 127.348 9.68C126.671 9.70333 126.158 9.96 125.808 10.45C125.458 10.9167 125.213 11.465 125.073 12.095C124.933 12.7017 124.851 13.2383 124.828 13.705C124.804 14.1483 124.793 14.37 124.793 14.37Z" fill="#356EFF"/>
</svg>
